<svg width="55" height="65" viewBox="0 0 55 65" fill="none" xmlns="http://www.w3.org/2000/svg">
<path d="M55 3.76224V2.51158C55 0.285836 52.5456 -0.837636 51.1154 0.730985L32.4076 21.1443C31.3447 22.3101 29.6246 22.3101 28.5617 21.1443L17.681 9.23121C16.2509 7.66259 13.7964 8.76487 13.7964 10.9906V21.2926V42.2146C13.7191 44.504 13.1393 45.7546 12.6175 46.4542C11.0521 48.6375 8.81026 47.7896 5.50547 49.5702C4.77107 49.973 4.11398 50.4181 3.55351 50.8844C3.10901 51.2448 2.72249 51.6052 2.37461 51.9443C2.37461 51.9655 2.35529 51.9655 2.35529 51.9655C2.20068 52.1351 2.06539 52.3047 1.93011 52.4743C0.519293 54.2337 -0.215105 56.4382 0.055463 58.664C0.596598 63.0095 4.7904 65.7652 9.4287 64.8113C11.0908 64.4721 12.5789 63.709 13.7964 62.6703C15.4778 61.2289 16.6181 59.2363 16.8693 57.1165C16.908 56.7986 16.9273 56.4806 16.9273 56.1626V24.7478L28.5617 37.4876C29.6246 38.6535 31.3447 38.6535 32.4076 37.4876L51.8691 16.2476V33.7568C51.7918 36.0461 51.2121 37.2968 50.6902 37.9963C49.1248 40.1797 46.883 39.3318 43.5782 41.1124C42.8438 41.5151 42.1867 41.9603 41.6262 42.4266C41.1817 42.787 40.7952 43.1473 40.4473 43.4865C40.4473 43.5077 40.428 43.5077 40.428 43.5077C40.2734 43.6773 40.1381 43.8469 40.0028 44.0164C38.592 45.7758 37.8576 47.9804 38.1282 50.2061C38.6693 54.5516 42.8631 57.3073 47.5014 56.3534C49.1635 56.0143 50.6516 55.2512 51.8691 54.2125C53.5505 52.771 54.6908 50.7785 54.942 48.6587C54.9807 48.3407 55 48.0228 55 47.7048V3.76224Z" fill="#FF7A00"/>
</svg>
