<svg width="200" height="200" viewBox="0 0 200 200" fill="none" xmlns="http://www.w3.org/2000/svg">
<rect width="200" height="200" fill="#D8D8D8"/>
<path d="M132 63.5841V62.0428C132 59.2999 128.698 57.9153 126.773 59.8485L101.603 85.0054C100.173 86.4421 97.8586 86.4421 96.4284 85.0054L81.789 70.324C79.8648 68.3908 76.5625 69.7493 76.5625 72.4922V85.1883V110.972C76.4584 113.793 75.6784 115.335 74.9763 116.197C72.8701 118.888 69.8538 117.843 65.4073 120.037C64.4192 120.533 63.5352 121.082 62.7811 121.657C62.183 122.101 61.663 122.545 61.1949 122.963C61.1949 122.989 61.1689 122.989 61.1689 122.989C60.9609 123.198 60.7789 123.407 60.5969 123.616C58.6987 125.784 57.7106 128.501 58.0746 131.244C58.8027 136.599 64.4453 139.995 70.6859 138.82C72.9221 138.402 74.9243 137.461 76.5625 136.181C78.8247 134.405 80.3588 131.949 80.6968 129.337C80.7488 128.945 80.7749 128.553 80.7749 128.161V89.4464L96.4284 105.147C97.8586 106.583 100.173 106.583 101.603 105.147L127.788 78.9709V100.549C127.684 103.37 126.903 104.911 126.201 105.773C124.095 108.464 121.079 107.419 116.632 109.614C115.644 110.11 114.76 110.659 114.006 111.233C113.408 111.678 112.888 112.122 112.42 112.54C112.42 112.566 112.394 112.566 112.394 112.566C112.186 112.775 112.004 112.984 111.822 113.193C109.924 115.361 108.936 118.078 109.3 120.821C110.028 126.176 115.67 129.572 121.911 128.397C124.147 127.979 126.149 127.038 127.788 125.758C130.05 123.982 131.584 121.526 131.922 118.914C131.974 118.522 132 118.13 132 117.738V63.5841Z" fill="#F5F5F5"/>
</svg>
