<svg width="200" height="200" viewBox="0 0 200 200" fill="none" xmlns="http://www.w3.org/2000/svg">
<rect width="200" height="200" fill="#D8D8D8"/>
<path d="M149.203 47.1176V44.8597C149.203 40.8414 144.365 38.8131 141.546 41.645L104.673 78.4986C102.578 80.6034 99.1878 80.6034 97.0925 78.4986L75.6467 56.9911C72.8278 54.1592 67.9901 56.1492 67.9901 60.1675V78.7666V116.539C67.8376 120.672 66.6949 122.93 65.6664 124.193C62.5809 128.134 58.1622 126.603 51.6484 129.818C50.2009 130.545 48.9057 131.349 47.801 132.191C46.9249 132.841 46.1631 133.492 45.4774 134.104C45.4774 134.143 45.4393 134.143 45.4393 134.143C45.1346 134.449 44.8679 134.755 44.6013 135.061C41.8205 138.237 40.373 142.217 40.9063 146.236C41.9729 154.081 50.239 159.056 59.3811 157.334C62.6571 156.722 65.5903 155.344 67.9901 153.469C71.3042 150.866 73.5514 147.269 74.0466 143.442C74.1228 142.868 74.1611 142.294 74.1611 141.72V85.0045L97.0925 108.004C99.1878 110.109 102.578 110.109 104.673 108.004L143.032 69.6584V101.269C142.88 105.402 141.737 107.66 140.708 108.923C137.623 112.865 133.204 111.334 126.69 114.549C125.243 115.276 123.948 116.079 122.843 116.921C121.967 117.572 121.205 118.223 120.519 118.835C120.519 118.873 120.481 118.873 120.481 118.873C120.177 119.179 119.91 119.485 119.643 119.791C116.862 122.968 115.415 126.948 115.948 130.966C117.015 138.811 125.281 143.786 134.423 142.064C137.699 141.452 140.632 140.074 143.032 138.199C146.346 135.597 148.594 132 149.089 128.173C149.165 127.599 149.203 127.024 149.203 126.45V47.1176Z" fill="#F5F5F5"/>
</svg>
